<svg width="28" height="28" viewBox="0 0 28 28" fill="none" xmlns="http://www.w3.org/2000/svg">
<path d="M16.4733 12.215L14 14.6883L11.515 12.215L9.87001 13.86L12.355 16.3333L9.88168 18.8067L11.5267 20.4517L14 17.9783L16.4733 20.4517L18.1183 18.8067L15.645 16.3333L18.1183 13.86L16.4733 12.215ZM18.0833 4.66667L16.9167 3.5H11.0833L9.91668 4.66667H5.83334V7H22.1667V4.66667H18.0833ZM7.00001 22.1667C7.00001 23.45 8.05001 24.5 9.33334 24.5H18.6667C19.95 24.5 21 23.45 21 22.1667V8.16667H7.00001V22.1667ZM9.33334 10.5H18.6667V22.1667H9.33334V10.5Z" fill="currentColor"/>
</svg>
