<svg width="38" height="39" viewBox="0 0 38 39" fill="none" xmlns="http://www.w3.org/2000/svg">
<path d="M19.7917 16.3333C19.7917 13.7208 17.6542 11.5833 15.0417 11.5833C12.4292 11.5833 10.2917 13.7208 10.2917 16.3333C10.2917 18.9458 12.4292 21.0833 15.0417 21.0833C17.6542 21.0833 19.7917 18.9458 19.7917 16.3333ZM15.0417 17.9167C14.1708 17.9167 13.4583 17.2042 13.4583 16.3333C13.4583 15.4625 14.1708 14.75 15.0417 14.75C15.9125 14.75 16.625 15.4625 16.625 16.3333C16.625 17.2042 15.9125 17.9167 15.0417 17.9167ZM25.3333 21.0833C27.0908 21.0833 28.5 19.6742 28.5 17.9167C28.5 16.1592 27.0908 14.75 25.3333 14.75C23.5758 14.75 22.1508 16.1592 22.1667 17.9167C22.1667 19.6742 23.5758 21.0833 25.3333 21.0833ZM18.9841 3.6825C10.2442 3.6825 3.15082 10.7758 3.15082 19.5158C3.15082 28.2558 10.2442 35.3492 18.9841 35.3492C27.7241 35.3492 34.8175 28.2558 34.8175 19.5158C34.8175 10.7758 27.7241 3.6825 18.9841 3.6825ZM9.24665 27.6067C10.3233 26.7517 12.8408 25.8492 15.0417 25.8492C15.1525 25.8492 15.2792 25.865 15.4058 25.865C15.7858 24.8517 16.4667 23.8225 17.4642 22.92C16.5775 22.7617 15.7383 22.6667 15.0417 22.6667C12.9833 22.6667 9.67415 23.3792 7.55248 24.9308C6.76082 23.2842 6.31748 21.4475 6.31748 19.5C6.31748 12.5175 12.0017 6.83333 18.9841 6.83333C25.9667 6.83333 31.6508 12.5175 31.6508 19.5C31.6508 21.4 31.2233 23.205 30.4633 24.8358C28.88 23.9017 26.7267 23.4583 25.3333 23.4583C22.9267 23.4583 18.2083 24.7408 18.2083 27.7333V32.135C14.6142 31.9292 11.4158 30.2192 9.24665 27.6067Z" fill="currentColor"/>
</svg>
