<svg width="54" height="54" viewBox="0 0 54 54" fill="none" xmlns="http://www.w3.org/2000/svg">
<circle cx="27" cy="27" r="27" fill="#51D289"/>
<path d="M35.8 37H39V39.6667H31V31.6667H33.6667V35.3067C36.1067 33.3467 37.6667 30.36 37.6667 27C37.6667 21.5733 33.5867 17.08 28.3333 16.4267V13.7333C35.0667 14.4 40.3333 20.08 40.3333 27C40.3333 30.9867 38.5733 34.56 35.8 37ZM16.3333 27C16.3333 23.64 17.8933 20.64 20.3333 18.6933V22.3333H23V14.3333H15V17H18.2C15.4267 19.44 13.6667 23.0133 13.6667 27C13.6667 33.92 18.9333 39.6 25.6667 40.2667V37.5733C20.4133 36.92 16.3333 32.4267 16.3333 27ZM32.6533 21.8133L25.1067 29.36L21.3333 25.5867L19.4533 27.4667L25.1067 33.12L34.5333 23.6933L32.6533 21.8133Z" fill="#1E1E1E"/>
</svg>
